<svg 
 xmlns="http://www.w3.org/2000/svg"
 xmlns:xlink="http://www.w3.org/1999/xlink"
 width="35px" height="35px">
<path fill-rule="evenodd"  fill="rgb(51, 51, 51)"
 d="M17.500,34.998 C7.835,34.998 -0.000,27.163 -0.000,17.498 C-0.000,7.833 7.835,-0.002 17.500,-0.002 C27.165,-0.002 35.000,7.833 35.000,17.498 C35.000,27.163 27.165,34.998 17.500,34.998 ZM18.512,6.997 C13.285,6.997 9.033,11.250 9.033,16.477 C9.033,18.175 9.483,19.827 10.338,21.279 L9.008,26.002 L13.878,24.748 C15.289,25.540 16.884,25.956 18.512,25.956 C23.739,25.956 27.992,21.704 27.992,16.477 C27.992,11.250 23.739,6.997 18.512,6.997 ZM18.512,23.941 C17.132,23.941 15.784,23.595 14.612,22.879 L14.336,22.711 L11.657,23.400 L12.386,20.811 L12.200,20.521 C11.426,19.316 11.016,17.917 11.016,16.477 C11.016,12.343 14.379,9.012 18.512,9.012 C22.646,9.012 25.977,12.343 25.977,16.477 C25.977,20.610 22.646,23.941 18.512,23.941 ZM23.161,18.540 L21.082,17.582 C20.947,17.520 20.787,17.559 20.696,17.677 L19.880,18.735 C19.819,18.814 19.713,18.846 19.618,18.813 C19.059,18.617 17.187,17.832 16.159,15.854 C16.115,15.768 16.126,15.664 16.189,15.590 L16.969,14.688 C17.049,14.596 17.069,14.467 17.021,14.355 L16.125,12.258 C16.077,12.146 15.970,12.072 15.849,12.065 L15.234,12.032 C15.041,12.021 14.852,12.085 14.705,12.212 C14.407,12.471 13.930,12.972 13.784,13.624 C13.566,14.597 13.903,15.788 14.777,16.979 C15.650,18.171 17.278,20.076 20.157,20.891 C21.084,21.152 21.814,20.976 22.377,20.616 C22.823,20.331 23.130,19.873 23.241,19.355 L23.339,18.896 C23.370,18.750 23.296,18.603 23.161,18.540 Z"/>
</svg>